<svg width="19" height="20" fill="none" xmlns="http://www.w3.org/2000/svg"><path d="M18.867 8.815a.739.739 0 00-.845-.618.744.744 0 00-.61.866c.751 4.466-2.227 8.702-6.652 9.46-4.426.759-8.623-2.247-9.374-6.713-.752-4.465 2.226-8.7 6.651-9.46a8.084 8.084 0 017.356 2.548l-3.27 1.1a.746.746 0 00-.468.942c.13.39.547.602.934.472l4.43-1.49a.744.744 0 00.505-.707V.745a.742.742 0 00-.74-.745.742.742 0 00-.738.745v2.721a9.44 9.44 0 00-13.43.34C-1 7.642-.85 13.71 2.952 17.36a9.44 9.44 0 0013.43-.34 9.645 9.645 0 002.484-8.205z" fill="url(#paint0_linear)"/><defs><linearGradient id="paint0_linear" x1="19" y1="20" x2="0" y2="20" gradientUnits="userSpaceOnUse"><stop stop-color="#FF6E2F"/><stop offset="1" stop-color="#F84343"/></linearGradient></defs></svg>