<svg width="30" height="30" fill="none" xmlns="http://www.w3.org/2000/svg"><path fill-rule="evenodd" clip-rule="evenodd" d="M20.145 6.877H9.855a2.982 2.982 0 00-2.978 2.978v10.29a2.982 2.982 0 002.978 2.979h10.29a2.982 2.982 0 002.979-2.979V9.855a2.982 2.982 0 00-2.98-2.978zM15 20.349A5.355 5.355 0 019.652 15c0-2.949 2.399-5.348 5.348-5.348s5.348 2.4 5.348 5.348c0 2.95-2.4 5.349-5.348 5.349zm5.52-9.591a1.267 1.267 0 01-1.265-1.266 1.266 1.266 0 111.265 1.266z" fill="url(#paint0_linear)"/><path fill-rule="evenodd" clip-rule="evenodd" d="M15 11.912A3.092 3.092 0 0011.91 15 3.093 3.093 0 0015 18.09 3.092 3.092 0 0018.088 15 3.092 3.092 0 0015 11.912z" fill="url(#paint1_linear)"/><path fill-rule="evenodd" clip-rule="evenodd" d="M3 0a3 3 0 00-3 3v24a3 3 0 003 3h24a3 3 0 003-3V3a3 3 0 00-3-3H3zm22.383 20.145a5.244 5.244 0 01-5.238 5.238H9.855a5.244 5.244 0 01-5.238-5.238V9.855a5.244 5.244 0 015.238-5.238h10.29a5.244 5.244 0 015.238 5.238v10.29z" fill="url(#paint2_linear)"/><defs><linearGradient id="paint0_linear" x1="7.683" y1="22.317" x2="23.415" y2="7.683" gradientUnits="userSpaceOnUse"><stop stop-color="#F96B3E"/><stop offset="1" stop-color="#9F43BA"/></linearGradient><linearGradient id="paint1_linear" x1="17.195" y1="13.171" x2="13.171" y2="17.195" gradientUnits="userSpaceOnUse"><stop stop-color="#BD5090"/><stop offset="1" stop-color="#DD5E64"/></linearGradient><linearGradient id="paint2_linear" x1="1.098" y1="29.268" x2="30" y2="1.098" gradientUnits="userSpaceOnUse"><stop stop-color="#FFDE2F"/><stop offset=".318" stop-color="#F84343"/><stop offset="1" stop-color="#7243F8"/></linearGradient></defs></svg>