
<svg width="176" height="30" viewBox="0 0 176 30" fill="none" xmlns="http://www.w3.org/2000/svg">
<path d="M0 30V0H29.5V5.5H5.5V25.5H26.5L52 0H59.5L29.5 30H0Z" fill="url(#paint0_linear)"/>
<path d="M63 30H45L42 27V22.5L45 19.5H63V22.5H45.5V27H63V30Z" fill="url(#paint1_linear)"/>
<path fill-rule="evenodd" clip-rule="evenodd" d="M64 27V22.5L67 19.5H81.5L84.5 22.5V27L81.5 30H67L64 27ZM67 22V28H81.5V22H67Z" fill="url(#paint2_linear)"/>
<path d="M85.5 22.5L88.5 19.5H102.5L105.5 22.5V30H103V22H96.5V30H94V22H88V30H85.5V22.5Z" fill="url(#paint3_linear)"/>
<path d="M116 30L105.5 19.5H109L117 27.5L125 19.5H129L118.5 30H116Z" fill="url(#paint4_linear)"/>
<path d="M130.5 19.5V30H132.5V19.5H130.5Z" fill="url(#paint5_linear)"/>
<path d="M136.5 30H154.5V27.5H137V22H154.5V19.5H136.5L133.5 22.5V27L136.5 30Z" fill="url(#paint6_linear)"/>
<path d="M158.5 19.5L155.5 21V24.5L158.5 26H173V27.5H155.5V30H173L176 28.5V25L173 23.5H158V22H176V19.5H158.5Z" fill="url(#paint7_linear)"/>
<defs>
<linearGradient id="paint0_linear" x1="176" y1="30" x2="2.62261e-06" y2="30" gradientUnits="userSpaceOnUse">
<stop stop-color="#FF6E2F"/>
<stop offset="1" stop-color="#F84343"/>
</linearGradient>
<linearGradient id="paint1_linear" x1="176" y1="30" x2="2.62261e-06" y2="30" gradientUnits="userSpaceOnUse">
<stop stop-color="#FF6E2F"/>
<stop offset="1" stop-color="#F84343"/>
</linearGradient>
<linearGradient id="paint2_linear" x1="176" y1="30" x2="2.62261e-06" y2="30" gradientUnits="userSpaceOnUse">
<stop stop-color="#FF6E2F"/>
<stop offset="1" stop-color="#F84343"/>
</linearGradient>
<linearGradient id="paint3_linear" x1="176" y1="30" x2="2.62261e-06" y2="30" gradientUnits="userSpaceOnUse">
<stop stop-color="#FF6E2F"/>
<stop offset="1" stop-color="#F84343"/>
</linearGradient>
<linearGradient id="paint4_linear" x1="176" y1="30" x2="2.62261e-06" y2="30" gradientUnits="userSpaceOnUse">
<stop stop-color="#FF6E2F"/>
<stop offset="1" stop-color="#F84343"/>
</linearGradient>
<linearGradient id="paint5_linear" x1="176" y1="30" x2="2.62261e-06" y2="30" gradientUnits="userSpaceOnUse">
<stop stop-color="#FF6E2F"/>
<stop offset="1" stop-color="#F84343"/>
</linearGradient>
<linearGradient id="paint6_linear" x1="176" y1="30" x2="2.62261e-06" y2="30" gradientUnits="userSpaceOnUse">
<stop stop-color="#FF6E2F"/>
<stop offset="1" stop-color="#F84343"/>
</linearGradient>
<linearGradient id="paint7_linear" x1="176" y1="30" x2="2.62261e-06" y2="30" gradientUnits="userSpaceOnUse">
<stop stop-color="#FF6E2F"/>
<stop offset="1" stop-color="#F84343"/>
</linearGradient>
</defs>
</svg>