<svg width="217" height="37" fill="none" xmlns="http://www.w3.org/2000/svg"><path d="M0 37V0h36.372v6.783H6.782V31.45h25.891L64.113 0h9.248L36.372 37H0zm77.676 0H55.483l-3.699-3.7v-5.55l3.699-3.7h22.193v3.7H56.1v5.55h21.577V37z" fill="#0E1823"/><path fill-rule="evenodd" clip-rule="evenodd" d="M78.91 33.3v-5.55l3.698-3.7h17.878l3.699 3.7v5.55l-3.699 3.7H82.608l-3.699-3.7zm3.698-6.167v7.4h17.878v-7.4H82.608z" fill="#0E1823"/><path d="M105.418 27.75l3.698-3.7h17.262l3.699 3.7V37h-3.083v-9.867h-8.014V37h-3.082v-9.867H108.5V37h-3.082v-9.25zM143.023 37l-12.946-12.95h4.315l9.864 9.867 9.863-9.867h4.932L146.105 37h-3.082zm17.878-12.95V37h2.465V24.05h-2.465zM168.298 37h22.193v-3.083h-21.576v-6.784h21.576V24.05h-22.193l-3.699 3.7v5.55l3.699 3.7zm27.125-12.95l-3.699 1.85v4.317l3.699 1.85h17.878v1.85h-21.577V37h21.577L217 35.15v-4.317l-3.699-1.85h-18.494v-1.85H217V24.05h-21.577z" fill="#0E1823"/></svg>