<svg width="17" height="19" fill="none" xmlns="http://www.w3.org/2000/svg"><path d="M7.628 13.749l-1.283-1.28 4.418-4.408c1.605.863 3.64.637 4.998-.715a4.22 4.22 0 000-5.976 4.246 4.246 0 00-5.994 0c-1.354 1.352-1.58 3.385-.715 4.984L.353 15.032a1.208 1.208 0 101.712 1.707l1.284 1.28c.236.236.62.236.856 0l.855-.853a.602.602 0 000-.854l-1.283-1.28.855-.857 1.285 1.284c.236.235.62.235.856 0l.855-.854a.605.605 0 000-.856zM11.48 3.078a1.821 1.821 0 012.57 0 1.812 1.812 0 010 2.561c-.71.705-1.86.705-2.57 0a1.811 1.811 0 010-2.561z" fill="#fff"/></svg>