<svg width="23" height="23" fill="none" xmlns="http://www.w3.org/2000/svg"><path d="M7.41 14.87h12.221c.3 0 .565-.2.648-.49l2.695-9.433a.674.674 0 00-.648-.86H5.856L5.375 1.92a.674.674 0 00-.658-.527H.674a.674.674 0 100 1.347h3.502L6.61 13.688a2.024 2.024 0 00-1.218 1.855c0 1.115.906 2.021 2.021 2.021h12.219a.674.674 0 000-1.347H7.412a.675.675 0 01-.002-1.348zm14.023-9.434l-2.31 8.085H7.952L6.156 5.436h15.277zM6.738 19.586c0 1.115.907 2.021 2.022 2.021a2.024 2.024 0 002.021-2.021 2.024 2.024 0 00-2.021-2.021 2.024 2.024 0 00-2.022 2.02zm2.022-.674a.675.675 0 11-.002 1.35.675.675 0 01.002-1.35zm7.502.674c0 1.115.907 2.021 2.021 2.021a2.024 2.024 0 002.022-2.021 2.024 2.024 0 00-2.022-2.021 2.024 2.024 0 00-2.021 2.02zm2.021-.674a.675.675 0 11-.002 1.35.675.675 0 01.002-1.35z" fill="#fff"/></svg>