<svg width="18" height="18" fill="none" xmlns="http://www.w3.org/2000/svg"><path d="M17.537 13.276L15.3 11.04a1.584 1.584 0 00-2.238 0l-1.017 1.017a1.2 1.2 0 01-1.695 0L5.94 7.643a1.198 1.198 0 010-1.695l1.018-1.017a1.581 1.581 0 000-2.238L4.72.463A1.584 1.584 0 002.484.46l-.815.809a5.712 5.712 0 000 8.069l6.985 6.989a5.703 5.703 0 008.07 0l.813-.814a1.584 1.584 0 000-2.238zM3.228 1.21a.528.528 0 01.747 0l2.237 2.23a.527.527 0 010 .746l-.373.373-2.982-2.981.371-.368zM9.4 15.582l-6.985-6.99a4.637 4.637 0 01-.291-6.257l2.973 2.973a2.251 2.251 0 00.098 3.081l4.408 4.412c.846.846 2.196.88 3.082.099l2.973 2.973a4.628 4.628 0 01-6.258-.291zm7.391-.814l-.373.373-2.983-2.984.373-.373a.528.528 0 01.746 0l2.237 2.238a.528.528 0 010 .746z" fill="url(#paint0_linear)"/><defs><linearGradient id="paint0_linear" x1="18" y1="18" x2="0" y2="18" gradientUnits="userSpaceOnUse"><stop stop-color="#FF6E2F"/><stop offset="1" stop-color="#F84343"/></linearGradient></defs></svg>