
<svg width="17" height="18" fill="none" xmlns="http://www.w3.org/2000/svg"><path d="M7.628 13.489L6.345 12.22l4.418-4.366c1.605.855 3.64.63 4.998-.708a4.154 4.154 0 0 0 0-5.92 4.274 4.274 0 0 0-5.994 0 4.135 4.135 0 0 0-.715 4.937L.353 14.76a1.189 1.189 0 0 0 0 1.69c.47.466 1.242.466 1.712 0l1.284 1.27a.61.61 0 0 0 .856 0l.855-.846a.592.592 0 0 0 0-.846L3.777 14.76l.855-.849 1.285 1.271a.61.61 0 0 0 .856 0l.855-.845a.596.596 0 0 0 0-.848zM11.48 2.918c.71-.7 1.86-.7 2.57 0a1.783 1.783 0 0 1 0 2.537c-.71.698-1.86.698-2.57 0a1.782 1.782 0 0 1 0-2.537z" fill="#0E1823"/></svg>
