
<svg width="457" height="78" viewBox="0 0 457 78" fill="none" xmlns="http://www.w3.org/2000/svg">
<path d="M0 78V0H76.5994V14.3H14.2812V66.3H68.8097L135.023 0H154.497L76.5994 78H0Z" fill="url(#paint0_linear)"/>
<path d="M163.585 78H116.847L109.057 70.2V58.5L116.847 50.7H163.585V58.5H118.145V70.2H163.585V78Z" fill="url(#paint1_linear)"/>
<path fill-rule="evenodd" clip-rule="evenodd" d="M166.182 70.2V58.5L173.972 50.7H211.622L219.412 58.5V70.2L211.622 78H173.972L166.182 70.2ZM173.972 57.2V72.8H211.622V57.2H173.972Z" fill="url(#paint2_linear)"/>
<path d="M222.009 58.5L229.798 50.7H266.151L273.94 58.5V78H267.449V57.2H250.571V78H244.08V57.2H228.5V78H222.009V58.5Z" fill="url(#paint3_linear)"/>
<path d="M301.205 78L273.94 50.7H283.028L303.801 71.5L324.574 50.7H334.96L307.696 78H301.205Z" fill="url(#paint4_linear)"/>
<path d="M338.855 50.7V78H344.048V50.7H338.855Z" fill="url(#paint5_linear)"/>
<path d="M354.435 78H401.173V71.5H355.733V57.2H401.173V50.7H354.435L346.645 58.5V70.2L354.435 78Z" fill="url(#paint6_linear)"/>
<path d="M411.56 50.7L403.77 54.6V63.7L411.56 67.6H449.21V71.5H403.77V78H449.21L457 74.1V65L449.21 61.1H410.261V57.2H457V50.7H411.56Z" fill="url(#paint7_linear)"/>
<defs>
<linearGradient id="paint0_linear" x1="457" y1="78" x2="6.80983e-06" y2="78" gradientUnits="userSpaceOnUse">
<stop stop-color="#FF6E2F"/>
<stop offset="1" stop-color="#F84343"/>
</linearGradient>
<linearGradient id="paint1_linear" x1="457" y1="78" x2="6.80983e-06" y2="78" gradientUnits="userSpaceOnUse">
<stop stop-color="#FF6E2F"/>
<stop offset="1" stop-color="#F84343"/>
</linearGradient>
<linearGradient id="paint2_linear" x1="457" y1="78" x2="6.80983e-06" y2="78" gradientUnits="userSpaceOnUse">
<stop stop-color="#FF6E2F"/>
<stop offset="1" stop-color="#F84343"/>
</linearGradient>
<linearGradient id="paint3_linear" x1="457" y1="78" x2="6.80983e-06" y2="78" gradientUnits="userSpaceOnUse">
<stop stop-color="#FF6E2F"/>
<stop offset="1" stop-color="#F84343"/>
</linearGradient>
<linearGradient id="paint4_linear" x1="457" y1="78" x2="6.80983e-06" y2="78" gradientUnits="userSpaceOnUse">
<stop stop-color="#FF6E2F"/>
<stop offset="1" stop-color="#F84343"/>
</linearGradient>
<linearGradient id="paint5_linear" x1="457" y1="78" x2="6.80983e-06" y2="78" gradientUnits="userSpaceOnUse">
<stop stop-color="#FF6E2F"/>
<stop offset="1" stop-color="#F84343"/>
</linearGradient>
<linearGradient id="paint6_linear" x1="457" y1="78" x2="6.80983e-06" y2="78" gradientUnits="userSpaceOnUse">
<stop stop-color="#FF6E2F"/>
<stop offset="1" stop-color="#F84343"/>
</linearGradient>
<linearGradient id="paint7_linear" x1="457" y1="78" x2="6.80983e-06" y2="78" gradientUnits="userSpaceOnUse">
<stop stop-color="#FF6E2F"/>
<stop offset="1" stop-color="#F84343"/>
</linearGradient>
</defs>
</svg>
