<svg xmlns="http://www.w3.org/2000/svg" width="172" height="22pt" viewBox="0 0 129 22"><g fill="#fff"><path d="M0 22V0h21.621v4.031H4.031V18.7h15.39L38.114 0h5.496L21.621 22zm46.176 0H32.984l-2.199-2.2v-3.3l2.2-2.2h13.19v2.2H33.353v3.3h12.824zm0 0"/><path d="M46.91 19.8v-3.3l2.2-2.2h10.624l2.2 2.2v3.3l-2.2 2.2H49.11zm2.2-3.667v4.398h10.624v-4.398zm0 0" fill-rule="evenodd"/><path d="M62.668 16.5l2.2-2.2h10.26l2.2 2.2V22h-1.836v-5.867H70.73V22h-1.832v-5.867H64.5V22h-1.832zM85.023 22l-7.695-7.7h2.563l5.867 5.868 5.86-5.867h2.933L86.855 22zm10.63-7.7V22h1.464v-7.7zm4.394 7.7h13.195v-1.832h-12.828v-4.035h12.828V14.3h-13.195l-2.2 2.199v3.3zm16.125-7.7l-2.2 1.098v2.57l2.2 1.098H126.8v1.102h-12.828V22H126.8l2.2-1.102v-2.566l-2.2-1.098h-10.99v-1.101H129V14.3zm0 0"/></g></svg>