<svg width="25" height="25" fill="none" xmlns="http://www.w3.org/2000/svg"><path d="M12.5.961c-4.474 0-8.113 3.64-8.113 8.113 0 1.512.419 2.987 1.211 4.267l6.44 10.378c.123.199.34.32.575.32h.005a.676.676 0 00.575-.33l6.276-10.478a8.104 8.104 0 001.144-4.157c0-4.473-3.64-8.113-8.113-8.113zm5.808 11.576l-5.706 9.527-5.855-9.436A6.753 6.753 0 015.73 9.074c0-3.728 3.042-6.77 6.77-6.77 3.728 0 6.765 3.042 6.765 6.77 0 1.223-.334 2.42-.957 3.463z" fill="url(#paint0_linear)"/><path d="M12.5 4.395a4.4 4.4 0 00-4.395 4.394 4.389 4.389 0 004.395 4.395 4.386 4.386 0 004.395-4.395A4.4 4.4 0 0012.5 4.395zm0 7.334a2.942 2.942 0 01-2.94-2.94 2.95 2.95 0 012.94-2.94 2.946 2.946 0 012.935 2.94 2.936 2.936 0 01-2.935 2.94z" fill="url(#paint1_linear)"/><defs><linearGradient id="paint0_linear" x1="20.613" y1="24.038" x2="4.387" y2="24.038" gradientUnits="userSpaceOnUse"><stop stop-color="#FF6E2F"/><stop offset="1" stop-color="#F84343"/></linearGradient><linearGradient id="paint1_linear" x1="16.895" y1="13.184" x2="8.105" y2="13.184" gradientUnits="userSpaceOnUse"><stop stop-color="#FF6E2F"/><stop offset="1" stop-color="#F84343"/></linearGradient></defs></svg>