<svg width="21" height="21" fill="none" xmlns="http://www.w3.org/2000/svg"><path d="M10.5 0C4.71 0 0 4.71 0 10.5S4.71 21 10.5 21 21 16.29 21 10.5 16.29 0 10.5 0zm0 19.563c-4.997 0-9.062-4.065-9.062-9.063 0-4.997 4.065-9.063 9.062-9.063 4.997 0 9.063 4.066 9.063 9.063 0 4.998-4.066 9.063-9.063 9.063z" fill="url(#paint0_linear)"/><path d="M15.917 10.36H10.93V4.91a.719.719 0 10-1.437 0v6.168a.72.72 0 00.719.719h5.706a.719.719 0 100-1.438z" fill="url(#paint1_linear)"/><defs><linearGradient id="paint0_linear" x1="21" y1="21.001" x2="0" y2="21.001" gradientUnits="userSpaceOnUse"><stop stop-color="#FF6E2F"/><stop offset="1" stop-color="#F84343"/></linearGradient><linearGradient id="paint1_linear" x1="16.636" y1="11.796" x2="9.492" y2="11.796" gradientUnits="userSpaceOnUse"><stop stop-color="#FF6E2F"/><stop offset="1" stop-color="#F84343"/></linearGradient></defs></svg>