<svg width="20" height="18" fill="none" xmlns="http://www.w3.org/2000/svg"><path d="M10.587 11.15a.937.937 0 001.326 1.325l2.812-2.812a.93.93 0 00.062-.069c.009-.01.016-.021.024-.032l.031-.041.024-.04.023-.04c.008-.013.014-.027.02-.041l.02-.041.015-.042.015-.045a.325.325 0 00.011-.042c.004-.015.009-.03.012-.047l.007-.049c.002-.014.005-.027.006-.041A.924.924 0 0015 9v-.002a.925.925 0 00-.005-.091l-.006-.042-.007-.05-.012-.046-.01-.042-.016-.045-.016-.042-.018-.04-.02-.043-.023-.037-.025-.041-.03-.04-.025-.034a.94.94 0 00-.059-.066l-.003-.003-2.812-2.812a.938.938 0 00-1.326 1.325l1.212 1.213H.938a.938.938 0 000 1.875h10.861l-1.212 1.212z" fill="#fff"/><path d="M19.063.563H7.188a.938.938 0 00-.938.937v3.75a.938.938 0 001.875 0V2.437h10v13.126h-10V12.75a.938.938 0 00-1.875 0v3.75c0 .518.42.938.938.938h11.875c.517 0 .937-.42.937-.938v-15a.938.938 0 00-.938-.938z" fill="#fff"/></svg>