<svg width="176" height="30" fill="none" xmlns="http://www.w3.org/2000/svg"><path d="M0 30V0h29.5v5.5h-24v20h21L52 0h7.5l-30 30H0z" fill="url(#paint0_linear)"/><path d="M63 30H45l-3-3v-4.5l3-3h18v3H45.5V27H63v3z" fill="url(#paint1_linear)"/><path fill-rule="evenodd" clip-rule="evenodd" d="M64 27v-4.5l3-3h14.5l3 3V27l-3 3H67l-3-3zm3-5v6h14.5v-6H67z" fill="url(#paint2_linear)"/><path d="M85.5 22.5l3-3h14l3 3V30H103v-8h-6.5v8H94v-8h-6v8h-2.5v-7.5z" fill="url(#paint3_linear)"/><path d="M116 30l-10.5-10.5h3.5l8 8 8-8h4L118.5 30H116z" fill="url(#paint4_linear)"/><path d="M130.5 19.5V30h2V19.5h-2z" fill="url(#paint5_linear)"/><path d="M136.5 30h18v-2.5H137V22h17.5v-2.5h-18l-3 3V27l3 3z" fill="url(#paint6_linear)"/><path d="M158.5 19.5l-3 1.5v3.5l3 1.5H173v1.5h-17.5V30H173l3-1.5V25l-3-1.5h-15V22h18v-2.5h-17.5z" fill="url(#paint7_linear)"/><defs><linearGradient id="paint0_linear" x1="176" y1="30" x2="0" y2="30" gradientUnits="userSpaceOnUse"><stop stop-color="#FF6E2F"/><stop offset="1" stop-color="#F84343"/></linearGradient><linearGradient id="paint1_linear" x1="176" y1="30" x2="0" y2="30" gradientUnits="userSpaceOnUse"><stop stop-color="#FF6E2F"/><stop offset="1" stop-color="#F84343"/></linearGradient><linearGradient id="paint2_linear" x1="176" y1="30" x2="0" y2="30" gradientUnits="userSpaceOnUse"><stop stop-color="#FF6E2F"/><stop offset="1" stop-color="#F84343"/></linearGradient><linearGradient id="paint3_linear" x1="176" y1="30" x2="0" y2="30" gradientUnits="userSpaceOnUse"><stop stop-color="#FF6E2F"/><stop offset="1" stop-color="#F84343"/></linearGradient><linearGradient id="paint4_linear" x1="176" y1="30" x2="0" y2="30" gradientUnits="userSpaceOnUse"><stop stop-color="#FF6E2F"/><stop offset="1" stop-color="#F84343"/></linearGradient><linearGradient id="paint5_linear" x1="176" y1="30" x2="0" y2="30" gradientUnits="userSpaceOnUse"><stop stop-color="#FF6E2F"/><stop offset="1" stop-color="#F84343"/></linearGradient><linearGradient id="paint6_linear" x1="176" y1="30" x2="0" y2="30" gradientUnits="userSpaceOnUse"><stop stop-color="#FF6E2F"/><stop offset="1" stop-color="#F84343"/></linearGradient><linearGradient id="paint7_linear" x1="176" y1="30" x2="0" y2="30" gradientUnits="userSpaceOnUse"><stop stop-color="#FF6E2F"/><stop offset="1" stop-color="#F84343"/></linearGradient></defs></svg>