<svg width="457" height="78" fill="none" xmlns="http://www.w3.org/2000/svg"><path d="M0 78V0h76.6v14.3H14.28v52h54.53L135.023 0h19.474L76.599 78H0z" fill="url(#paint0_linear)"/><path d="M163.585 78h-46.738l-7.79-7.8V58.5l7.79-7.8h46.738v7.8h-45.44v11.7h45.44V78z" fill="url(#paint1_linear)"/><path fill-rule="evenodd" clip-rule="evenodd" d="M166.182 70.2V58.5l7.79-7.8h37.65l7.79 7.8v11.7l-7.79 7.8h-37.65l-7.79-7.8zm7.79-13v15.6h37.65V57.2h-37.65z" fill="url(#paint2_linear)"/><path d="M222.009 58.5l7.789-7.8h36.353l7.789 7.8V78h-6.491V57.2h-16.878V78h-6.491V57.2H228.5V78h-6.491V58.5z" fill="url(#paint3_linear)"/><path d="M301.205 78L273.94 50.7h9.088l20.773 20.8 20.773-20.8h10.386L307.696 78h-6.491z" fill="url(#paint4_linear)"/><path d="M338.855 50.7V78h5.193V50.7h-5.193z" fill="url(#paint5_linear)"/><path d="M354.435 78h46.738v-6.5h-45.44V57.2h45.44v-6.5h-46.738l-7.79 7.8v11.7l7.79 7.8z" fill="url(#paint6_linear)"/><path d="M411.56 50.7l-7.79 3.9v9.1l7.79 3.9h37.65v3.9h-45.44V78h45.44l7.79-3.9V65l-7.79-3.9h-38.949v-3.9H457v-6.5h-45.44z" fill="url(#paint7_linear)"/><defs><linearGradient id="paint0_linear" x1="457" y1="78" x2="0" y2="78" gradientUnits="userSpaceOnUse"><stop stop-color="#FF6E2F"/><stop offset="1" stop-color="#F84343"/></linearGradient><linearGradient id="paint1_linear" x1="457" y1="78" x2="0" y2="78" gradientUnits="userSpaceOnUse"><stop stop-color="#FF6E2F"/><stop offset="1" stop-color="#F84343"/></linearGradient><linearGradient id="paint2_linear" x1="457" y1="78" x2="0" y2="78" gradientUnits="userSpaceOnUse"><stop stop-color="#FF6E2F"/><stop offset="1" stop-color="#F84343"/></linearGradient><linearGradient id="paint3_linear" x1="457" y1="78" x2="0" y2="78" gradientUnits="userSpaceOnUse"><stop stop-color="#FF6E2F"/><stop offset="1" stop-color="#F84343"/></linearGradient><linearGradient id="paint4_linear" x1="457" y1="78" x2="0" y2="78" gradientUnits="userSpaceOnUse"><stop stop-color="#FF6E2F"/><stop offset="1" stop-color="#F84343"/></linearGradient><linearGradient id="paint5_linear" x1="457" y1="78" x2="0" y2="78" gradientUnits="userSpaceOnUse"><stop stop-color="#FF6E2F"/><stop offset="1" stop-color="#F84343"/></linearGradient><linearGradient id="paint6_linear" x1="457" y1="78" x2="0" y2="78" gradientUnits="userSpaceOnUse"><stop stop-color="#FF6E2F"/><stop offset="1" stop-color="#F84343"/></linearGradient><linearGradient id="paint7_linear" x1="457" y1="78" x2="0" y2="78" gradientUnits="userSpaceOnUse"><stop stop-color="#FF6E2F"/><stop offset="1" stop-color="#F84343"/></linearGradient></defs></svg>