<svg width="21" height="21" fill="none" xmlns="http://www.w3.org/2000/svg"><path d="M10.5 2.46a4.312 4.312 0 00-4.307 4.308c0 1.474.744 2.83 1.99 3.628 1.27.815 2.832.901 4.282.234a.615.615 0 10-.514-1.118c-1.06.488-2.193.433-3.105-.152a3.068 3.068 0 01-1.422-2.592A3.08 3.08 0 0110.5 3.69a3.08 3.08 0 013.076 3.077.616.616 0 01-1.23.009v-.01A1.848 1.848 0 0010.5 4.923a1.848 1.848 0 00-1.846 1.846c0 1.017.828 1.845 1.846 1.845.472 0 .904-.178 1.23-.471a1.84 1.84 0 001.23.471 1.848 1.848 0 001.847-1.845A4.311 4.311 0 0010.5 2.46zm.607 4.406a.616.616 0 11.004-.169.614.614 0 00-.004.17z" fill="url(#paint0_linear)"/><path d="M19.729 8.08a.62.62 0 00-.18-.435l-2.281-2.28V.614A.615.615 0 0016.652 0H4.348a.615.615 0 00-.616.615v4.75l-2.28 2.28-.006.007a.618.618 0 00-.174.427v11.075c0 1.02.829 1.846 1.845 1.846h14.766a1.848 1.848 0 001.846-1.846V8.08zm-2.461-.976l.975.976-.975.976V7.104zM4.963 5.62V1.23h11.074v9.056l-3.33 3.331H8.293l-3.331-3.33V5.618zm-1.23 1.485v1.952l-.976-.976.975-.976zM2.501 18.9V9.564l4.667 4.667L2.502 18.9zm.87.87l4.922-4.922h4.412l4.922 4.921H3.372zm15.126-.87l-4.667-4.668 4.667-4.667V18.9z" fill="url(#paint1_linear)"/><defs><linearGradient id="paint0_linear" x1="14.807" y1="11.075" x2="6.193" y2="11.075" gradientUnits="userSpaceOnUse"><stop stop-color="#FF6E2F"/><stop offset="1" stop-color="#F84343"/></linearGradient><linearGradient id="paint1_linear" x1="19.729" y1="21" x2="1.271" y2="21" gradientUnits="userSpaceOnUse"><stop stop-color="#FF6E2F"/><stop offset="1" stop-color="#F84343"/></linearGradient></defs></svg>