<svg width="30" height="30" fill="none" xmlns="http://www.w3.org/2000/svg"><path fill-rule="evenodd" clip-rule="evenodd" d="M3 0a3 3 0 00-3 3v24a3 3 0 003 3h24a3 3 0 003-3V3a3 3 0 00-3-3H3zm19.49 16.597c.689.672 1.417 1.305 2.035 2.048.273.328.532.666.728 1.047.28.545.026 1.142-.46 1.174h-3.025c-.78.063-1.403-.252-1.928-.786-.417-.425-.807-.88-1.21-1.32a2.85 2.85 0 00-.543-.485c-.413-.268-.771-.187-1.008.244-.24.438-.296.925-.318 1.413-.033.713-.248.899-.963.933-1.53.071-2.982-.161-4.33-.932-1.19-.68-2.111-1.64-2.913-2.727-1.563-2.118-2.76-4.443-3.834-6.835-.243-.54-.066-.828.527-.839a79.1 79.1 0 012.963 0c.402.006.668.235.822.614.534 1.313 1.187 2.562 2.008 3.721.219.308.442.615.758.833.35.242.618.163.783-.23.105-.249.151-.514.174-.78.078-.912.088-1.825-.048-2.735-.084-.568-.405-.936-.972-1.043-.289-.055-.245-.162-.106-.327.244-.285.474-.462.929-.462h3.129c.192 0 .39.005.567.081.308.134.397.376.456.809l.002 3.799c-.006.21.105.832.482.97.302.1.503-.144.684-.335.818-.869 1.403-1.896 1.925-2.96a19.9 19.9 0 00.624-1.438c.143-.36.366-.536.772-.53l3.291.004c.097 0 .197 0 .293.016.553.096.706.335.534.877-.27.848-.796 1.557-1.309 2.267-.55.76-1.135 1.493-1.68 2.257-.5.7-.46 1.051.161 1.657z" fill="#2A528E"/></svg>